<svg width="32" height="28" viewBox="0 0 32 28" fill="none" xmlns="http://www.w3.org/2000/svg">
<path d="M11.9514 25.6682C12.6928 27.0357 14.3366 28 16.2768 28C18.2169 28 19.8608 27.0357 20.6022 25.6682C19.2341 25.7231 17.8114 25.76 16.2768 25.76C14.7422 25.76 13.3195 25.7231 11.9514 25.6682Z" fill="#3E4954"/>
<path d="M31.3351 19.74C29.5355 17.8785 26.5155 14.2195 26.5155 10.64C26.5155 7.09073 23.7357 3.89758 19.6888 2.72382C19.6397 1.21406 18.1269 0 16.2768 0C14.4254 0 12.914 1.21406 12.8648 2.72382C8.81661 3.89758 6.03681 7.09073 6.03681 10.64C6.03681 14.2207 3.01808 17.8785 1.21721 19.74C0.616477 20.3616 0.430743 21.1825 0.72161 21.9363C1.00561 22.6721 1.71281 23.2422 2.61394 23.4595C4.19228 23.8415 6.77954 24.2715 10.7254 24.491C12.4334 24.5851 14.2698 24.64 16.2769 24.64C18.2825 24.64 20.1189 24.5851 21.8269 24.491C25.7741 24.2715 28.3601 23.8415 29.9397 23.4595C30.8409 23.2422 31.5467 22.6722 31.8307 21.9363C32.1215 21.1825 31.9345 20.3616 31.3351 19.74Z" fill="#3E4954"/>
</svg>
