<svg width="35" height="28" viewBox="0 0 35 28" fill="none" xmlns="http://www.w3.org/2000/svg">
<path d="M27.8157 26.5201C28.1084 26.5201 28.3972 26.6114 28.6169 26.7854C30.0211 27.8978 32.0696 28.2682 33.8906 27.8046C32.7186 25.8018 32.5562 23.5074 33.4644 21.3829C34.5915 18.7397 34.8739 16.0904 33.5912 13.4333C32.4643 11.0991 30.2897 9.15981 27.5374 8.05396C27.7068 8.79443 27.7921 9.5489 27.7921 10.3113C27.7922 13.5476 26.2751 16.5914 23.5206 18.8822C20.7658 21.1732 17.073 22.4614 13.1225 22.5096C12.3886 22.519 11.6579 22.4836 10.9355 22.4055C13.1066 25.5272 17.2013 27.5604 21.7008 27.6152C23.6691 27.6401 25.5591 27.3018 27.3191 26.6124C27.4776 26.5502 27.6474 26.5201 27.8157 26.5201Z" fill="#3E4954"/>
<path d="M13.1547 0.00230146C6.1467 -0.111847 0.321135 4.53879 0.304237 10.2863C0.300097 11.6905 0.634249 13.052 1.29748 14.333C1.30712 14.3517 1.31607 14.3705 1.32418 14.3897C2.23235 16.5141 2.07005 18.8085 0.898022 20.8114C2.71917 21.2747 4.76734 20.9046 6.17171 19.7921C6.51769 19.518 7.03535 19.4489 7.46945 19.6191C9.22926 20.3086 11.1194 20.6479 13.0877 20.622C20.0408 20.5373 25.4874 16.0085 25.4873 10.3116C25.4874 4.73915 19.9549 0.11444 13.1547 0.00230146ZM6.17931 11.8516C5.17246 11.8516 4.35622 11.1832 4.35622 10.3586C4.35622 9.53408 5.17246 8.86562 6.17931 8.86562C7.18616 8.86562 8.0024 9.53408 8.0024 10.3586C8.00232 11.1832 7.18616 11.8516 6.17931 11.8516ZM12.8958 11.8516C11.889 11.8516 11.0727 11.1832 11.0727 10.3586C11.0727 9.53408 11.889 8.86562 12.8958 8.86562C13.9027 8.86562 14.7189 9.53408 14.7189 10.3586C14.7189 11.1832 13.9027 11.8516 12.8958 11.8516ZM19.6124 11.8516C18.6055 11.8516 17.7893 11.1832 17.7893 10.3586C17.7893 9.53408 18.6055 8.86562 19.6124 8.86562C20.6192 8.86562 21.4355 9.53408 21.4355 10.3586C21.4355 11.1832 20.6192 11.8516 19.6124 11.8516Z" fill="#3E4954"/>
</svg>
