<svg width="159" height="159" viewBox="0 0 159 159" fill="none" xmlns="http://www.w3.org/2000/svg">
<g clip-path="url(#clip0_20_705)">
<path d="M151.547 147.522C151.547 148.894 150.434 150.007 149.062 150.007H9.9375C8.56613 150.007 7.45312 148.894 7.45312 147.522V127.647C7.51027 118.763 12.6181 110.686 20.6203 106.828L55.5755 90.1083C61.9106 98.0831 70.2581 103.772 79.5 103.772C88.7419 103.772 97.0894 98.0831 103.425 90.1083L138.38 106.828C146.407 110.699 151.52 118.81 151.547 127.722V147.522Z" fill="#ED7899"/>
<path d="M45.2653 102.008L79.5 121.734L113.735 102.008C115.767 100.99 117.389 99.3079 118.331 97.2384L103.425 90.1083C97.0894 98.0831 88.7419 103.772 79.5 103.772C70.2581 103.772 61.9106 98.0831 55.5755 90.1083L40.6692 97.2384C41.6108 99.3079 43.2331 100.99 45.2653 102.008Z" fill="#F98CB3"/>
<path d="M141.609 139.125H17.3906C11.9026 139.125 7.45312 143.575 7.45312 149.062C7.45312 150.434 8.56613 151.547 9.9375 151.547H149.062C150.434 151.547 151.547 150.434 151.547 149.062C151.547 143.575 147.097 139.125 141.609 139.125Z" fill="#E0678F"/>
<path d="M47.377 69.8855C46.6069 69.8855 44.1225 67.8483 42.8306 63.0038C41.5388 58.1592 42.7064 54.8799 43.3027 54.7308C43.3027 54.7308 48.023 53.9109 48.0727 52.9669C48.1348 51.6079 48.2838 50.2564 48.5198 48.9173C48.659 47.4814 48.5919 46.0355 48.3211 44.6194C47.6652 40.145 47.5559 35.6061 47.9981 31.1044C48.8428 22.7072 53.7619 17.7136 61.1902 17.7136C61.7541 17.7111 62.3032 17.5298 62.7553 17.1919C67.7837 14.0715 73.5822 12.4194 79.5 12.4219H82.1334C98.0831 12.4219 109.462 20.5706 114.306 34.9552C112.492 34.7564 113.089 36.0234 111.822 37.2656C110.555 38.5078 107.4 39.0047 108.592 42.2344C110.035 45.633 110.875 49.2552 111.076 52.942C111.076 53.8861 115.797 52.2216 115.846 52.2216C116.492 52.4452 117.635 58.1095 116.318 62.9789C114.969 66.6632 112.9 70.0395 110.232 72.9164C110.232 72.9164 104.766 82.5806 103.449 84.742C97.6608 94.2572 89.1394 101.636 79.6491 101.636C66.0595 101.636 54.4575 86.5805 50.0353 71.6991C49.6651 70.5612 48.572 69.8159 47.377 69.8855Z" fill="#BF9E99"/>
<path d="M48.0727 52.942C48.0727 52.942 45.9858 46.7808 48.495 46.2094C55.7866 44.4902 61.6994 39.1711 64.1714 32.0981C72.7425 34.9552 70.0097 41.5636 105.263 39.7997C106.754 39.7997 110.232 48.6937 111.946 48.5944C112.368 48.5944 123.672 57.0413 110.083 72.9661C106.903 76.6927 103.251 82.9036 103.723 86.9531C104.617 94.5802 118.008 97.2633 118.331 97.2384C119.399 97.2384 139.274 88.6673 138.976 88.0462C128.84 66.9539 120.418 40.1227 121.337 39.2531C122.927 37.7377 119.126 33.1416 121.337 33.39C115.573 15.7261 101.462 5.14266 81.9844 5.14266L77.0156 2.48438C59.625 2.48438 41.1164 17.7136 40.073 27.9741C39.3276 35.4272 26.8561 72.4692 27.3281 76.0716C27.3281 76.0716 19.875 82.9036 22.2103 89.4375C32.9925 97.2136 50.1595 95.2012 57.1406 89.4375C58.5816 88.245 47.8242 72.0469 43.6256 68.6433C41.34 66.78 41.8617 55.2773 43.4766 53.4389C46.8802 49.5136 48.0727 52.942 48.0727 52.942Z" fill="#A37982"/>
<path d="M116.766 134.156C115.394 134.156 114.281 135.269 114.281 136.641V141.609C114.281 142.981 115.394 144.094 116.766 144.094C118.137 144.094 119.25 142.981 119.25 141.609V136.641C119.25 135.269 118.137 134.156 116.766 134.156ZM129.188 134.156C127.816 134.156 126.703 135.269 126.703 136.641V141.609C126.703 142.981 127.816 144.094 129.188 144.094C130.559 144.094 131.672 142.981 131.672 141.609V136.641C131.672 135.269 130.559 134.156 129.188 134.156ZM139.125 136.641V141.609C139.125 142.981 140.238 144.094 141.609 144.094C142.981 144.094 144.094 142.981 144.094 141.609V136.641C144.094 135.269 142.981 134.156 141.609 134.156C140.238 134.156 139.125 135.269 139.125 136.641ZM104.344 134.156C102.972 134.156 101.859 135.269 101.859 136.641V141.609C101.859 142.981 102.972 144.094 104.344 144.094C105.715 144.094 106.828 142.981 106.828 141.609V136.641C106.828 135.269 105.715 134.156 104.344 134.156ZM91.9219 134.156C90.5505 134.156 89.4375 135.269 89.4375 136.641V141.609C89.4375 142.981 90.5505 144.094 91.9219 144.094C93.2932 144.094 94.4062 142.981 94.4062 141.609V136.641C94.4062 135.269 93.2932 134.156 91.9219 134.156ZM79.5 129.187C78.1286 129.187 77.0156 130.3 77.0156 131.672V141.609C77.0156 142.981 78.1286 144.094 79.5 144.094C80.8714 144.094 81.9844 142.981 81.9844 141.609V131.672C81.9844 130.3 80.8714 129.187 79.5 129.187ZM67.0781 134.156C65.7068 134.156 64.5938 135.269 64.5938 136.641V141.609C64.5938 142.981 65.7068 144.094 67.0781 144.094C68.4495 144.094 69.5625 142.981 69.5625 141.609V136.641C69.5625 135.269 68.4495 134.156 67.0781 134.156ZM54.6562 134.156C53.2849 134.156 52.1719 135.269 52.1719 136.641V141.609C52.1719 142.981 53.2849 144.094 54.6562 144.094C56.0276 144.094 57.1406 142.981 57.1406 141.609V136.641C57.1406 135.269 56.0276 134.156 54.6562 134.156ZM42.2344 134.156C40.863 134.156 39.75 135.269 39.75 136.641V141.609C39.75 142.981 40.863 144.094 42.2344 144.094C43.6057 144.094 44.7188 142.981 44.7188 141.609V136.641C44.7188 135.269 43.6057 134.156 42.2344 134.156ZM29.8125 134.156C28.4411 134.156 27.3281 135.269 27.3281 136.641V141.609C27.3281 142.981 28.4411 144.094 29.8125 144.094C31.1839 144.094 32.2969 142.981 32.2969 141.609V136.641C32.2969 135.269 31.1839 134.156 29.8125 134.156ZM17.3906 134.156C16.0193 134.156 14.9062 135.269 14.9062 136.641V141.609C14.9062 142.981 16.0193 144.094 17.3906 144.094C18.762 144.094 19.875 142.981 19.875 141.609V136.641C19.875 135.269 18.762 134.156 17.3906 134.156ZM58.035 41.812C59.1803 42.5673 60.7206 42.2542 61.4783 41.1089C61.4808 41.104 61.4858 41.0965 61.4883 41.0916L65.4633 35.0545L69.3389 36.9426C76.4591 40.4108 84.275 42.2195 92.1952 42.2344H98.5303C99.9017 42.2344 101.015 41.1214 101.015 39.75C101.015 38.3786 99.9017 37.2656 98.5303 37.2656H92.1952C85.0327 37.2557 77.9671 35.6259 71.5252 32.4956L67.6495 30.6075C65.4012 29.5094 62.6858 30.2547 61.3144 32.3465L57.3394 38.3836C56.5916 39.5239 56.9021 41.0543 58.035 41.812Z" fill="#8D6C9F"/>
<path d="M138.504 102.803L126.231 96.8906C129.93 95.8522 133.57 94.6174 137.138 93.1889C140.946 91.6262 142.765 87.2711 141.202 83.4651C141.023 83.0253 140.799 82.6055 140.541 82.208L135.92 75.1275C132.862 70.4619 130.658 65.2869 129.411 59.8486L123.772 35.2781C119.6 16.9435 103.812 3.57503 85.0402 2.48439C82.526 0.834763 79.577 -0.0297991 76.5684 1.33974e-05C56.7531 -0.0919085 39.5736 13.6815 35.3527 33.0422L29.2659 60.3703C28.0138 65.9403 25.758 71.2345 22.6078 75.997L18.4838 82.2577C16.213 85.6911 17.1521 90.3145 20.5855 92.5852C20.988 92.8535 21.4153 93.0796 21.8625 93.2635C25.3978 94.6646 29.0051 95.8745 32.6695 96.8906L20.4961 102.803C11.0306 107.37 5.00105 116.94 4.96875 127.448V146.578C4.96875 150.695 8.30527 154.031 12.4219 154.031H146.578C150.695 154.031 154.031 150.695 154.031 146.578V127.448C153.999 116.94 147.969 107.37 138.504 102.803ZM23.7755 88.6674C23.0898 88.3767 22.5681 87.7929 22.3594 87.0774C22.1432 86.3718 22.2525 85.6066 22.6575 84.9905L26.7816 78.7299C30.3094 73.4381 32.836 67.5427 34.2347 61.3392L40.3214 34.0111C44.0803 17.018 59.1629 4.9315 76.5684 4.96876C78.782 4.97622 80.936 5.69917 82.7048 7.03079C83.1073 7.33389 83.5918 7.50779 84.0961 7.52767C100.868 8.21833 115.109 20.039 118.877 36.3961L124.517 61.0163C125.883 67.0185 128.306 72.7301 131.672 77.8852L136.392 84.9656C136.75 85.5644 136.839 86.2848 136.641 86.9531C136.42 87.6637 135.89 88.2401 135.2 88.5183C130.017 90.5555 124.696 92.2175 119.275 93.4871L105.536 86.9531C108.167 82.8713 110.271 78.4715 111.797 73.8605C114.853 72.7177 117.635 68.8917 118.952 63.923C119.725 61.2249 119.879 58.3903 119.399 55.6252C119.146 53.0514 117.419 50.8601 114.977 50.0105C114.619 49.9111 114.254 49.854 113.884 49.8366C113.615 47.8491 113.173 45.8864 112.567 43.9735C112.15 42.6642 110.746 41.9412 109.437 42.3586C108.127 42.776 107.405 44.1797 107.822 45.4889C108.659 47.9957 109.161 50.6018 109.312 53.2402C109.382 54.6115 110.55 55.6649 111.921 55.5954C112.353 55.573 112.776 55.4388 113.138 55.2028C113.34 55.0587 113.568 54.9569 113.809 54.9047C113.933 54.9047 114.405 55.4513 114.654 56.7183C114.977 58.7331 114.85 60.7952 114.281 62.7553C113.064 67.3266 110.704 69.2644 109.983 69.2644C108.85 69.2147 107.827 69.9426 107.499 71.0283C103.325 85.1147 92.3691 99.375 79.5 99.375C66.6309 99.375 55.6748 85.1147 51.5011 71.0531C51.1732 69.9675 50.1496 69.2395 49.0167 69.2892C48.2962 69.2892 45.9361 67.3514 44.7188 62.7802C44.1548 60.8275 44.0256 58.7754 44.3461 56.768C44.5945 55.501 45.0666 54.9792 45.1659 54.9544C45.4094 54.9991 45.6405 55.101 45.8367 55.2525C46.982 56.0078 48.5223 55.6898 49.2776 54.5445C49.5335 54.1569 49.6751 53.7047 49.6875 53.2402C49.8117 50.6564 50.2713 48.1025 51.0539 45.638C51.4663 44.3287 50.7359 42.9325 49.4266 42.5201C48.1174 42.1077 46.7212 42.8381 46.3087 44.1474C45.7125 46.0454 45.2802 47.9907 45.0169 49.9608C44.6467 49.9757 44.279 50.0353 43.9238 50.1347C41.4816 50.9844 39.755 53.1756 39.5016 55.7494C39.0221 58.5145 39.1761 61.3492 39.9487 64.0472C41.2903 69.016 44.0728 72.7425 47.1037 73.9847C48.6689 78.5584 50.808 82.916 53.4638 86.9531L39.5264 93.6113C34.1626 92.3492 28.8982 90.6971 23.7755 88.6674ZM149.062 146.578C149.062 147.95 147.949 149.063 146.578 149.063H12.4219C11.0505 149.063 9.9375 147.95 9.9375 146.578V127.448C9.9375 118.835 14.8864 110.989 22.6575 107.275L56.3953 91.1269C62.5069 98.8533 70.5563 104.344 79.5 104.344C88.4437 104.344 96.4931 98.8533 102.605 91.1517L136.343 107.3C144.106 111.009 149.053 118.845 149.062 127.448V146.578Z" fill="#8D6C9F"/>
<path d="M53.3892 108.965L78.233 123.871C79.0006 124.316 79.9497 124.316 80.7174 123.871L105.561 108.965C106.831 108.443 107.434 106.99 106.91 105.72C106.388 104.451 104.935 103.847 103.666 104.371C103.454 104.458 103.256 104.575 103.074 104.716L79.5 118.828L55.9233 104.692C54.8451 103.842 53.2824 104.028 52.4352 105.106C51.5856 106.185 51.7719 107.747 52.8501 108.595C53.029 108.736 53.2302 108.853 53.4414 108.94L53.3892 108.965Z" fill="#8D6C9F"/>
</g>
<defs>
<clipPath id="clip0_20_705">
<rect width="159" height="159" fill="white"/>
</clipPath>
</defs>
</svg>
